<svg xmlns="http://www.w3.org/2000/svg" version="1.1" xmlns:xlink="http://www.w3.org/1999/xlink" xmlns:svgjs="http://svgjs.dev/svgjs" width="1000" height="156" viewBox="0 0 1000 156"><g transform="matrix(1,0,0,1,-0.6060605763620401,0.3476172377364719)"><svg viewBox="0 0 396 62" data-background-color="#ffffff" preserveAspectRatio="xMidYMid meet" height="156" width="1000" xmlns="http://www.w3.org/2000/svg" xmlns:xlink="http://www.w3.org/1999/xlink"><g id="tight-bounds" transform="matrix(1,0,0,1,0.24000001176068508,-0.1381555688439846)"><svg viewBox="0 0 395.52 62.276311137687976" height="62.276311137687976" width="395.52"><g><svg viewBox="0 0 395.52 62.276311137687976" height="62.276311137687976" width="395.52"><g><svg viewBox="0 0 395.52 62.276311137687976" height="62.276311137687976" width="395.52"><g><svg viewBox="0 0 395.52 62.276311137687976" height="62.276311137687976" width="395.52"><g><svg viewBox="0 0 395.52 33.588866442199766" height="33.588866442199766" width="395.52"><g transform="matrix(1,0,0,1,0,0)"><svg width="395.52" viewBox="1.350000023841858 -33.75 400.9100036621094 34.04999923706055" height="33.588866442199766" data-palette-color="#d9bca9"><path d="M6.4-30.25Q8.25-24.75 10.6-18.18 12.95-11.6 14.9-6.8L14.9-6.8Q16.35-11.45 18.9-17.98 21.45-24.5 23.65-29.75L23.65-29.75Q24.3-31.3 25.85-31.3L25.85-31.3Q27.3-31.3 28.05-30.73 28.8-30.15 28.8-28.75L28.8-28.75Q28.8-28.2 28.65-27.8 28.5-27.4 28.2-26.75L28.2-26.75Q26.65-23.7 25.1-19.73 23.55-15.75 21.3-9.65L21.3-9.65Q21.4-9.9 19.9-5.9L19.9-5.9 18.25-1.6Q17.95-0.8 17.28-0.38 16.6 0.05 15.75 0.05L15.75 0.05Q14.9 0.05 13.88-0.38 12.85-0.8 12.4-1.25L12.4-1.25Q10.7-4.5 8.08-10.65 5.45-16.8 3.55-22L3.55-22 2.8-24.05Q2.05-26.15 1.7-27.28 1.35-28.4 1.35-29.1L1.35-29.1Q1.35-30.1 2.48-30.7 3.6-31.3 4.65-31.3L4.65-31.3Q5.2-31.3 5.7-31.05 6.2-30.8 6.4-30.25L6.4-30.25ZM34.65-32.1Q36.4-31.95 37.7-31.18 39-30.4 39-28.85L39-28.85Q39-27.7 37.92-27.03 36.85-26.35 35.35-26.35L35.35-26.35Q33.9-26.35 33.35-27.1 32.8-27.85 32.8-28.65L32.8-28.65Q32.8-30.15 33.12-31.15 33.45-32.15 34.65-32.1L34.65-32.1ZM38.65-18.95L38.65-9.95 38.65-8.5Q38.65-6.55 38.77-4.83 38.9-3.1 39.1-1.35L39.1-1.35Q39.05-0.85 38.35-0.33 37.65 0.2 37.1 0.2L37.1 0.2Q36.15 0.2 35.17-0.18 34.2-0.55 34-1.1L34-1.1Q33.7-2.7 33.7-3.95L33.7-3.95Q33.7-8.05 33.45-13.15L33.45-13.15Q33.25-17.65 33.25-19.45L33.25-19.45Q33.25-20.35 34.15-21 35.05-21.65 36.05-21.65L36.05-21.65Q37.5-21.65 38.07-21 38.65-20.35 38.65-18.95L38.65-18.95ZM46.1-9Q46.1-11.8 46.15-13.25L46.15-13.25 46.2-18Q46.2-20.9 46.05-24.35L46.05-24.35Q46-25.4 45.7-27.25L45.7-27.25Q45.3-30.05 45.3-31.45L45.3-31.45Q45.3-33.75 47.6-33.75L47.6-33.75Q49.05-33.75 49.67-32.98 50.3-32.2 50.55-30.55L50.55-30.55Q51.05-27.1 51.05-22.45L51.05-22.45Q51.05-21.05 50.95-18.25L50.95-18.25Q51.9-19.75 53.42-20.6 54.95-21.45 56.45-21.45L56.45-21.45Q60.8-21.45 63.95-17.85L63.95-17.85Q64.8-16.6 65.47-14.88 66.15-13.15 66.15-11.9L66.15-11.9Q66.15-9.7 65.67-7.85 65.2-6 64-4.25L64-4.25Q62.8-2.5 60.97-1.4 59.15-0.3 56.75-0.3L56.75-0.3Q54.65-0.3 52.97-1.15 51.3-2 50.3-3.4L50.3-3.4Q50.05-2.15 49.2-0.93 48.35 0.3 47.25 0.3L47.25 0.3Q46.35 0.3 45.75-0.18 45.15-0.65 45.15-1.6L45.15-1.6Q45.15-2.3 45.45-3.35L45.45-3.35Q45.75-4.8 45.92-6.03 46.1-7.25 46.1-9L46.1-9ZM55.5-4.45Q57.95-4.45 59.6-6.18 61.25-7.9 61.25-10.85L61.25-10.85Q61.25-13.55 59.8-15.5L59.8-15.5Q59.3-16.15 58.37-16.55 57.45-16.95 56.55-16.95L56.55-16.95Q54.45-16.95 53-15.73 51.55-14.5 51.35-12.35L51.35-12.35Q51.15-9.45 51.15-7.35L51.15-7.35Q51.75-6.2 52.97-5.33 54.2-4.45 55.5-4.45L55.5-4.45ZM78.29-2Q78.29-1.15 77.64-0.5 76.99 0.15 76.04 0.15L76.04 0.15Q74.54 0.15 73.84-0.43 73.14-1 73.14-2.55L73.14-2.55Q73.14-4.4 73.04-7.4L73.04-7.4Q72.94-9.9 72.94-11.6L72.94-11.6Q72.94-12.4 73.04-13.7L73.04-13.7Q73.14-14.9 73.14-15.5L73.14-15.5Q72.99-16.45 72.39-17.07 71.79-17.7 70.84-17.7L70.84-17.7Q70.39-17.7 70.09-18.13 69.79-18.55 69.79-19L69.79-19Q69.79-20.15 70.72-20.75 71.64-21.35 72.94-21.35L72.94-21.35Q75.64-21.35 76.69-18.15L76.69-18.15Q77.99-19.65 79.67-20.58 81.34-21.5 82.89-21.5L82.89-21.5Q84.74-21.5 86.27-20.5 87.79-19.5 87.79-17.8L87.79-17.8Q87.79-16.85 86.97-15.85 86.14-14.85 85.29-14.85L85.29-14.85Q84.84-14.85 84.52-15.08 84.19-15.3 83.74-15.75L83.74-15.75Q83.24-16.25 82.89-16.48 82.54-16.7 82.09-16.7L82.09-16.7Q81.29-16.7 80.59-16.45 79.89-16.2 79.64-15.85L79.64-15.85Q78.84-14.6 78.47-13.6 78.09-12.6 78.09-11.45L78.09-11.45Q78.09-10.6 78.04-10.1L78.04-10.1 77.99-7.25Q77.99-6.6 78.04-5.8 78.09-5 78.14-4.6L78.14-4.6Q78.29-3.25 78.29-2L78.29-2ZM113.49-2.4Q113.49-1.3 112.31-0.55 111.14 0.2 110.14 0.2L110.14 0.2Q108.24 0.2 107.12-0.28 105.99-0.75 105.04-2.05L105.04-2.05Q103.74-0.9 101.49-0.33 99.24 0.25 97.34 0.25L97.34 0.25Q94.24 0.25 92.24-1.43 90.24-3.1 90.24-6.35L90.24-6.35Q90.24-7.75 90.99-8.93 91.74-10.1 93.04-11L93.04-11Q94.49-11.95 96.34-12.48 98.19-13 100.19-13L100.19-13Q101.24-13 102.69-12.6 104.14-12.2 104.94-11.75L104.94-11.75 104.94-12.55Q104.94-15.25 103.64-16.28 102.34-17.3 99.44-17.3L99.44-17.3Q98.59-17.3 97.77-16.95 96.94-16.6 95.89-16L95.89-16Q94.49-15.25 93.24-15.25L93.24-15.25Q92.79-15.25 92.39-15.88 91.99-16.5 91.99-17L91.99-17Q91.99-18.45 93.37-19.5 94.74-20.55 96.64-21.08 98.54-21.6 100.04-21.6L100.04-21.6Q101.54-21.6 103.49-21.03 105.44-20.45 106.69-19.45L106.69-19.45Q108.19-18.15 109.02-16.43 109.84-14.7 109.84-12.65L109.84-12.65Q109.84-12 109.74-10.7L109.74-10.7Q109.64-9.3 109.64-8.3L109.64-8.3Q109.64-7.85 109.54-6.95L109.54-6.95Q109.44-5.85 109.44-5.2L109.44-5.2Q109.44-4.6 109.89-4.17 110.34-3.75 110.94-3.75L110.94-3.75 112.34-3.8Q112.89-3.8 113.19-3.4 113.49-3 113.49-2.4L113.49-2.4ZM97.39-3.7Q99.54-3.7 100.99-4.15 102.44-4.6 104.49-5.8L104.49-5.8Q104.69-6.65 104.74-8.05L104.74-8.05Q101.99-9.35 100.19-9.35L100.19-9.35Q98.14-9.35 96.54-8.6 94.94-7.85 94.94-5.95L94.94-5.95Q94.94-5 95.74-4.35 96.54-3.7 97.39-3.7L97.39-3.7ZM139.59-3.85Q139.84-3.75 140.39-3.6 140.94-3.45 141.19-3.3 141.44-3.15 141.44-2.85L141.44-2.85Q141.49-1.65 140.56-0.88 139.64-0.1 138.39-0.1L138.39-0.1Q136.44-0.1 135.34-1.15 134.24-2.2 133.74-4.35L133.74-4.35Q133.54-5.2 133.54-6.7L133.54-6.7Q133.54-7.55 133.64-9.45L133.64-9.45Q133.74-11.45 133.74-12.65L133.74-12.65Q133.74-14.4 132.76-15.73 131.79-17.05 130.04-17.05L130.04-17.05Q128.99-17.05 127.84-16.43 126.69-15.8 126.24-14.9L126.24-14.9Q125.49-13.45 125.19-11.75L125.19-11.75Q124.64-8.75 124.64-5.5L124.64-5.5Q124.64-3.95 124.69-3.1L124.69-3.1Q124.69-2.9 124.71-2.33 124.74-1.75 124.61-1.28 124.49-0.8 124.19-0.4L124.19-0.4Q123.94-0.15 123.41 0.03 122.89 0.2 122.44 0.2L122.44 0.2Q121.74 0.2 120.69-0.4 119.64-1 119.49-1.75L119.49-1.75 119.44-2.6Q119.44-3.05 119.54-3.65L119.54-3.65Q120.14-7.15 120.14-9.75L120.14-9.75Q120.14-10.9 120.09-11.55L120.09-11.55 120.04-13.9Q120.04-15.1 119.44-16.23 118.84-17.35 118.04-17.35L118.04-17.35Q117.79-17.35 117.34-17.18 116.89-17 116.59-17L116.59-17Q116.09-17 115.51-17.5 114.94-18 114.94-18.55L114.94-18.55Q114.94-19.6 115.64-20.25L115.64-20.25Q116.39-20.85 117.11-21.2 117.84-21.55 118.79-21.55L118.79-21.55Q119.59-21.55 120.09-21.4 120.59-21.25 121.44-20.75L121.44-20.75Q121.89-20.5 122.49-19.65 123.09-18.8 123.49-17.25L123.49-17.25Q124.79-19.65 126.71-20.63 128.64-21.6 131.64-21.6L131.64-21.6Q132.79-21.6 134.11-20.85 135.44-20.1 136.39-19.1L136.39-19.1Q137.29-18 137.89-16.38 138.49-14.75 138.49-13.45L138.49-13.45Q138.49-12.7 138.39-11L138.39-11Q138.24-9.65 138.24-8.15L138.24-8.15Q138.24-4.65 139.59-3.85L139.59-3.85ZM147.58-32.1Q149.33-31.95 150.63-31.18 151.94-30.4 151.94-28.85L151.94-28.85Q151.94-27.7 150.86-27.03 149.78-26.35 148.28-26.35L148.28-26.35Q146.83-26.35 146.28-27.1 145.73-27.85 145.73-28.65L145.73-28.65Q145.73-30.15 146.06-31.15 146.38-32.15 147.58-32.1L147.58-32.1ZM151.58-18.95L151.58-9.95 151.58-8.5Q151.58-6.55 151.71-4.83 151.83-3.1 152.03-1.35L152.03-1.35Q151.98-0.85 151.28-0.33 150.58 0.2 150.03 0.2L150.03 0.2Q149.08 0.2 148.11-0.18 147.13-0.55 146.94-1.1L146.94-1.1Q146.63-2.7 146.63-3.95L146.63-3.95Q146.63-8.05 146.38-13.15L146.38-13.15Q146.19-17.65 146.19-19.45L146.19-19.45Q146.19-20.35 147.08-21 147.98-21.65 148.98-21.65L148.98-21.65Q150.44-21.65 151.01-21 151.58-20.35 151.58-18.95L151.58-18.95ZM156.88-16.85Q156.48-16.85 156.16-17.18 155.83-17.5 155.83-17.95L155.83-17.95Q155.83-19.1 156.83-20.1L156.83-20.1Q157.13-20.25 158.03-20.6 158.93-20.95 159.63-20.95L159.63-20.95Q161.53-20.95 162.73-19.93 163.93-18.9 163.93-17L163.93-17Q163.93-16.45 163.73-14.65L163.73-14.65Q163.53-12.55 163.53-11.4L163.53-11.4Q163.53-7.9 164.48-5.75L164.48-5.75Q164.83-5.05 165.58-4.65 166.33-4.25 166.93-4.25L166.93-4.25Q168.38-4.25 169.28-4.75 170.18-5.25 171.23-6.35L171.23-6.35Q172.28-7.45 172.61-8.85 172.93-10.25 173.08-12.7L173.08-12.7Q173.18-14.3 173.28-15.05L173.28-15.05Q173.53-17.45 173.53-19.15L173.53-19.15Q173.53-20.25 174.13-20.98 174.73-21.7 175.78-21.7L175.78-21.7Q176.38-21.7 177.16-21.33 177.93-20.95 178.18-20.45L178.18-20.45Q178.48-19.95 178.48-18.8L178.48-18.8Q178.48-18.2 178.33-17.65L178.33-17.65Q177.98-16.4 177.98-14.65L177.98-14.65 178.03-12.05Q178.03-8.5 178.53-6.8L178.53-6.8Q178.78-6 179.23-5.18 179.68-4.35 180.08-3.8L180.08-3.8Q181.08-2.7 181.38-2.27 181.68-1.85 181.68-1.45L181.68-1.45Q181.68-0.85 181.11-0.33 180.53 0.2 179.88 0.2L179.88 0.2Q178.03 0.2 176.68-1.05 175.33-2.3 174.68-4.3L174.68-4.3Q172.98-2.35 171.53-1.15L171.53-1.15Q170.53-0.45 169.08-0.13 167.63 0.2 166.18 0.2L166.18 0.2Q164.23 0.2 162.23-1.4 160.23-3 159.53-5.1L159.53-5.1Q159.48-5.2 159.26-5.9 159.03-6.6 159.03-8L159.03-8Q159.03-9.85 159.23-12.65L159.23-12.65Q159.38-14.45 159.38-15.95L159.38-15.95Q159.38-16.4 159.06-16.7 158.73-17 158.33-17L158.33-17Q158.03-17 157.66-16.93 157.28-16.85 156.88-16.85L156.88-16.85ZM217.03-1.75Q216.28-3.15 216.08-4.88 215.88-6.6 215.88-9.65L215.88-9.65Q215.88-12.55 215.08-14.7 214.28-16.85 211.78-16.85L211.78-16.85Q210.83-16.85 209.91-16.28 208.98-15.7 208.53-14.85L208.53-14.85Q207.83-13.5 207.58-11.93 207.33-10.35 207.33-8.3L207.33-8.3Q207.33-7 207.48-5.65L207.48-5.65Q207.48-5.25 207.56-4.38 207.63-3.5 207.63-2.8L207.63-2.8Q207.63 0.2 205.53 0.2L205.53 0.2Q202.78 0.2 202.63-2.7L202.63-2.7Q202.63-4.75 202.68-4.9L202.68-4.9 202.68-7.05Q202.68-8.85 202.53-10.55 202.38-12.25 202.18-13.1L202.18-13.1Q201.73-14.75 201.01-15.65 200.28-16.55 198.73-16.55L198.73-16.55Q196.53-16.55 195.18-14.65L195.18-14.65Q194.23-13.15 193.93-11L193.93-11Q193.63-8.25 193.51-6.68 193.38-5.1 193.38-3.05L193.38-3.05Q193.38-1.6 192.91-0.7 192.43 0.2 191.13 0.2L191.13 0.2Q190.18 0.2 189.16-0.33 188.13-0.85 188.13-1.75L188.13-1.75Q188.13-2.7 188.33-3.65L188.33-3.65Q188.78-6.5 188.78-13.85L188.78-13.85Q188.78-15.05 188.21-16.18 187.63-17.3 186.83-17.3L186.83-17.3Q186.63-17.3 186.11-17.1 185.58-16.9 185.33-16.9L185.33-16.9Q184.68-16.9 184.16-17.5 183.63-18.1 183.63-18.5L183.63-18.5Q183.63-19.75 184.86-20.63 186.08-21.5 187.43-21.5L187.43-21.5Q189.28-21.5 190.58-20.35 191.88-19.2 192.58-17.15L192.58-17.15Q193.73-19.15 195.68-20.38 197.63-21.6 200.03-21.6L200.03-21.6Q201.53-21.6 202.46-21.23 203.38-20.85 203.98-20.18 204.58-19.5 205.53-18.15L205.53-18.15Q206.78-19.75 208.76-20.65 210.73-21.55 212.83-21.55L212.83-21.55Q215.33-21.55 217.33-19.53 219.33-17.5 220.03-14.85L220.03-14.85Q220.38-13.5 220.38-9.65L220.38-9.65 220.58-6.75Q220.83-4.15 222.28-3.6L222.28-3.6Q223.98-3.1 223.98-2.55L223.98-2.55Q223.98-1.35 223.38-0.8L223.38-0.8Q222.93-0.5 222.13-0.15 221.33 0.2 220.88 0.2L220.88 0.2Q218.18 0.2 217.03-1.75L217.03-1.75ZM245.38-1.8Q245.23-1.05 244.5-0.53 243.78 0 242.48 0L242.48 0Q241.38 0 240.75-0.6 240.13-1.2 240.08-1.85L240.08-1.85Q240.38-3.95 240.38-8.15L240.38-8.15Q240.38-10.65 240.08-15.85L240.08-15.85Q239.73-20.75 239.73-24.55L239.73-24.55Q239.73-26.6 239.93-28.75L239.93-28.75Q239.93-29.45 240.75-30.25 241.58-31.05 243.03-31.25L243.03-31.25Q247.78-31.75 254.68-31.75L254.68-31.75 256.28-31.75Q258.08-31.75 259.8-31.1 261.53-30.45 261.53-28.85L261.53-28.85Q261.53-27.8 261.03-27.2 260.53-26.6 259.18-26.6L259.18-26.6Q258.53-26.6 257.68-26.7 256.83-26.8 256.48-26.85L256.48-26.85Q254.58-27.15 253.53-27.15L253.53-27.15Q247.73-27.15 244.78-26.35L244.78-26.35Q244.78-24.7 244.88-21L244.88-21 244.93-17.8Q247.53-17.8 249.58-18.03 251.63-18.25 251.93-18.3L251.93-18.3Q254.53-18.6 255.38-18.6L255.38-18.6Q256.58-18.6 257.4-18.07 258.23-17.55 258.23-16.45L258.23-16.45Q258.23-13.95 254.73-13.95L254.73-13.95Q253.88-13.95 253.23-13.9 252.58-13.85 252.13-13.8L252.13-13.8Q250.33-13.6 249.28-13.6L249.28-13.6Q246.98-13.6 245.38-13.45L245.38-13.45Q245.38-11.6 245.53-9.55L245.53-9.55Q245.53-8.9 245.6-7.55 245.68-6.2 245.68-5.1L245.68-5.1Q245.68-4.15 245.63-3.35 245.58-2.55 245.38-1.8L245.38-1.8ZM266.97-32.1Q268.72-31.95 270.02-31.18 271.32-30.4 271.32-28.85L271.32-28.85Q271.32-27.7 270.25-27.03 269.17-26.35 267.67-26.35L267.67-26.35Q266.22-26.35 265.67-27.1 265.12-27.85 265.12-28.65L265.12-28.65Q265.12-30.15 265.45-31.15 265.77-32.15 266.97-32.1L266.97-32.1ZM270.97-18.95L270.97-9.95 270.97-8.5Q270.97-6.55 271.1-4.83 271.22-3.1 271.42-1.35L271.42-1.35Q271.37-0.85 270.67-0.33 269.97 0.2 269.42 0.2L269.42 0.2Q268.47 0.2 267.5-0.18 266.52-0.55 266.32-1.1L266.32-1.1Q266.02-2.7 266.02-3.95L266.02-3.95Q266.02-8.05 265.77-13.15L265.77-13.15Q265.57-17.65 265.57-19.45L265.57-19.45Q265.57-20.35 266.47-21 267.37-21.65 268.37-21.65L268.37-21.65Q269.82-21.65 270.4-21 270.97-20.35 270.97-18.95L270.97-18.95ZM300.02-3.85Q300.27-3.75 300.82-3.6 301.37-3.45 301.62-3.3 301.87-3.15 301.87-2.85L301.87-2.85Q301.92-1.65 301-0.88 300.07-0.1 298.82-0.1L298.82-0.1Q296.87-0.1 295.77-1.15 294.67-2.2 294.17-4.35L294.17-4.35Q293.97-5.2 293.97-6.7L293.97-6.7Q293.97-7.55 294.07-9.45L294.07-9.45Q294.17-11.45 294.17-12.65L294.17-12.65Q294.17-14.4 293.2-15.73 292.22-17.05 290.47-17.05L290.47-17.05Q289.42-17.05 288.27-16.43 287.12-15.8 286.67-14.9L286.67-14.9Q285.92-13.45 285.62-11.75L285.62-11.75Q285.07-8.75 285.07-5.5L285.07-5.5Q285.07-3.95 285.12-3.1L285.12-3.1Q285.12-2.9 285.15-2.33 285.17-1.75 285.05-1.28 284.92-0.8 284.62-0.4L284.62-0.4Q284.37-0.15 283.85 0.03 283.32 0.2 282.87 0.2L282.87 0.2Q282.17 0.2 281.12-0.4 280.07-1 279.92-1.75L279.92-1.75 279.87-2.6Q279.87-3.05 279.97-3.65L279.97-3.65Q280.57-7.15 280.57-9.75L280.57-9.75Q280.57-10.9 280.52-11.55L280.52-11.55 280.47-13.9Q280.47-15.1 279.87-16.23 279.27-17.35 278.47-17.35L278.47-17.35Q278.22-17.35 277.77-17.18 277.32-17 277.02-17L277.02-17Q276.52-17 275.95-17.5 275.37-18 275.37-18.55L275.37-18.55Q275.37-19.6 276.07-20.25L276.07-20.25Q276.82-20.85 277.55-21.2 278.27-21.55 279.22-21.55L279.22-21.55Q280.02-21.55 280.52-21.4 281.02-21.25 281.87-20.75L281.87-20.75Q282.32-20.5 282.92-19.65 283.52-18.8 283.92-17.25L283.92-17.25Q285.22-19.65 287.15-20.63 289.07-21.6 292.07-21.6L292.07-21.6Q293.22-21.6 294.55-20.85 295.87-20.1 296.82-19.1L296.82-19.1Q297.72-18 298.32-16.38 298.92-14.75 298.92-13.45L298.92-13.45Q298.92-12.7 298.82-11L298.82-11Q298.67-9.65 298.67-8.15L298.67-8.15Q298.67-4.65 300.02-3.85L300.02-3.85ZM328.22-2.4Q328.22-1.3 327.04-0.55 325.87 0.2 324.87 0.2L324.87 0.2Q322.97 0.2 321.84-0.28 320.72-0.75 319.77-2.05L319.77-2.05Q318.47-0.9 316.22-0.33 313.97 0.25 312.07 0.25L312.07 0.25Q308.97 0.25 306.97-1.43 304.97-3.1 304.97-6.35L304.97-6.35Q304.97-7.75 305.72-8.93 306.47-10.1 307.77-11L307.77-11Q309.22-11.95 311.07-12.48 312.92-13 314.92-13L314.92-13Q315.97-13 317.42-12.6 318.87-12.2 319.67-11.75L319.67-11.75 319.67-12.55Q319.67-15.25 318.37-16.28 317.07-17.3 314.17-17.3L314.17-17.3Q313.32-17.3 312.49-16.95 311.67-16.6 310.62-16L310.62-16Q309.22-15.25 307.97-15.25L307.97-15.25Q307.52-15.25 307.12-15.88 306.72-16.5 306.72-17L306.72-17Q306.72-18.45 308.09-19.5 309.47-20.55 311.37-21.08 313.27-21.6 314.77-21.6L314.77-21.6Q316.27-21.6 318.22-21.03 320.17-20.45 321.42-19.45L321.42-19.45Q322.92-18.15 323.74-16.43 324.57-14.7 324.57-12.65L324.57-12.65Q324.57-12 324.47-10.7L324.47-10.7Q324.37-9.3 324.37-8.3L324.37-8.3Q324.37-7.85 324.27-6.95L324.27-6.95Q324.17-5.85 324.17-5.2L324.17-5.2Q324.17-4.6 324.62-4.17 325.07-3.75 325.67-3.75L325.67-3.75 327.07-3.8Q327.62-3.8 327.92-3.4 328.22-3 328.22-2.4L328.22-2.4ZM312.12-3.7Q314.27-3.7 315.72-4.15 317.17-4.6 319.22-5.8L319.22-5.8Q319.42-6.65 319.47-8.05L319.47-8.05Q316.72-9.35 314.92-9.35L314.92-9.35Q312.87-9.35 311.27-8.6 309.67-7.85 309.67-5.95L309.67-5.95Q309.67-5 310.47-4.35 311.27-3.7 312.12-3.7L312.12-3.7ZM354.32-3.85Q354.57-3.75 355.12-3.6 355.67-3.45 355.92-3.3 356.17-3.15 356.17-2.85L356.17-2.85Q356.22-1.65 355.29-0.88 354.37-0.1 353.12-0.1L353.12-0.1Q351.17-0.1 350.07-1.15 348.97-2.2 348.47-4.35L348.47-4.35Q348.27-5.2 348.27-6.7L348.27-6.7Q348.27-7.55 348.37-9.45L348.37-9.45Q348.47-11.45 348.47-12.65L348.47-12.65Q348.47-14.4 347.49-15.73 346.52-17.05 344.77-17.05L344.77-17.05Q343.72-17.05 342.57-16.43 341.42-15.8 340.97-14.9L340.97-14.9Q340.22-13.45 339.92-11.75L339.92-11.75Q339.37-8.75 339.37-5.5L339.37-5.5Q339.37-3.95 339.42-3.1L339.42-3.1Q339.42-2.9 339.44-2.33 339.47-1.75 339.34-1.28 339.22-0.8 338.92-0.4L338.92-0.4Q338.67-0.15 338.14 0.03 337.62 0.2 337.17 0.2L337.17 0.2Q336.47 0.2 335.42-0.4 334.37-1 334.22-1.75L334.22-1.75 334.17-2.6Q334.17-3.05 334.27-3.65L334.27-3.65Q334.87-7.15 334.87-9.75L334.87-9.75Q334.87-10.9 334.82-11.55L334.82-11.55 334.77-13.9Q334.77-15.1 334.17-16.23 333.57-17.35 332.77-17.35L332.77-17.35Q332.52-17.35 332.07-17.18 331.62-17 331.32-17L331.32-17Q330.82-17 330.24-17.5 329.67-18 329.67-18.55L329.67-18.55Q329.67-19.6 330.37-20.25L330.37-20.25Q331.12-20.85 331.84-21.2 332.57-21.55 333.52-21.55L333.52-21.55Q334.32-21.55 334.82-21.4 335.32-21.25 336.17-20.75L336.17-20.75Q336.62-20.5 337.22-19.65 337.82-18.8 338.22-17.25L338.22-17.25Q339.52-19.65 341.44-20.63 343.37-21.6 346.37-21.6L346.37-21.6Q347.52-21.6 348.84-20.85 350.17-20.1 351.12-19.1L351.12-19.1Q352.02-18 352.62-16.38 353.22-14.75 353.22-13.45L353.22-13.45Q353.22-12.7 353.12-11L353.12-11Q352.97-9.65 352.97-8.15L352.97-8.15Q352.97-4.65 354.32-3.85L354.32-3.85ZM377.51-16.7Q377.51-14.5 375.26-14.5L375.26-14.5Q374.51-14.5 374.01-14.85 373.51-15.2 372.91-15.9L372.91-15.9Q371.41-17.55 370.31-17.55L370.31-17.55Q368.86-17.55 367.49-16.7 366.11-15.85 365.26-14.3 364.41-12.75 364.41-10.85L364.41-10.85Q364.41-8.75 365.24-7.35 366.06-5.95 367.81-4.95L367.81-4.95Q368.46-4.6 369.34-4.4 370.21-4.2 370.86-4.2L370.86-4.2Q372.31-4.2 374.51-5.35L374.51-5.35Q375.31-5.75 375.86-5.95 376.41-6.15 377.01-6.15L377.01-6.15Q377.56-6.15 378.26-5.65 378.96-5.15 378.96-4.4L378.96-4.4Q378.96-2.9 377.56-1.88 376.16-0.85 374.14-0.33 372.11 0.2 370.26 0.2L370.26 0.2Q367.31 0.2 364.79-1.15 362.26-2.5 360.76-4.88 359.26-7.25 359.26-10.25L359.26-10.25Q359.26-13.45 360.71-16.1 362.16-18.75 364.61-20.25 367.06-21.75 369.96-21.75L369.96-21.75Q371.61-21.75 373.36-21.15 375.11-20.55 376.31-19.4 377.51-18.25 377.51-16.7L377.51-16.7ZM382.81-10.6Q382.81-12.5 383.51-14.43 384.21-16.35 385.36-17.95L385.36-17.95Q386.51-19.55 389.01-20.58 391.51-21.6 393.46-21.6L393.46-21.6Q395.46-21.6 397.54-21.05 399.61-20.5 400.41-19.35L400.41-19.35Q402.26-16.75 402.26-14.25L402.26-14.25Q402.26-12.9 401.69-11.95 401.11-11 400.06-9.9L400.06-9.9Q399.21-9 397.39-8.7 395.56-8.4 393.76-8.4L393.76-8.4Q392.61-8.4 390.96-8.63 389.31-8.85 387.76-9.2L387.76-9.2Q387.86-8.2 388.26-7.25 388.66-6.3 389.21-5.8L389.21-5.8Q390.21-4.85 391.29-4.6 392.36-4.35 394.06-4.35L394.06-4.35Q395.86-4.35 397.41-4.95L397.41-4.95Q398.66-5.4 399.46-5.4L399.46-5.4Q400.41-5.4 400.91-4.83 401.41-4.25 401.41-3.35L401.41-3.35Q401.41-2.1 399.96-1.3 398.51-0.5 396.64-0.13 394.76 0.25 393.61 0.25L393.61 0.25Q391.26 0.25 389.06-0.6 386.86-1.45 385.41-3L385.41-3Q384.21-4.4 383.51-6.38 382.81-8.35 382.81-10.6L382.81-10.6ZM393.71-17.35Q392.61-17.35 391.51-16.93 390.41-16.5 389.71-15.75L389.71-15.75Q388.81-14.8 388.49-14.23 388.16-13.65 388.06-12.65L388.06-12.65Q389.31-12.25 393.26-12.25L393.26-12.25Q395.41-12.25 396.59-12.9 397.76-13.55 397.76-14.6L397.76-14.6Q397.76-15.65 396.46-16.5 395.16-17.35 393.71-17.35L393.71-17.35Z" opacity="1" transform="matrix(1,0,0,1,0,0)" fill="#d9bca9" class="undefined-text-0" data-fill-palette-color="primary" id="text-0"></path></svg></g></svg></g><g transform="matrix(1,0,0,1,116.92957405379805,41.51839167640852)"><svg viewBox="0 0 161.66085189240388 20.757919461279457" height="20.757919461279457" width="161.66085189240388"><g transform="matrix(1,0,0,1,0,0)"><svg width="161.66085189240388" viewBox="2.6500000953674316 -36.099998474121094 354.32000732421875 45.5" height="20.757919461279457" data-palette-color="#d9bca9"><path d="M18.55-36.1L18.55-36.1Q21.85-36.1 23.98-35.13 26.1-34.15 27.75-32.85L27.75-32.85Q28.75-32.1 29.28-32.68 29.8-33.25 30-35.4L30-35.4 31.15-35.4Q31.05-33.55 31-30.9 30.95-28.25 30.95-23.9L30.95-23.9 29.8-23.9Q29.45-26.05 29.15-27.33 28.85-28.6 28.43-29.5 28-30.4 27.3-31.3L27.3-31.3Q25.75-33.35 23.4-34.27 21.05-35.2 18.45-35.2L18.45-35.2Q16-35.2 14.03-33.98 12.05-32.75 10.63-30.45 9.2-28.15 8.43-24.9 7.65-21.65 7.65-17.6L7.65-17.6Q7.65-13.4 8.5-10.18 9.35-6.95 10.88-4.75 12.4-2.55 14.48-1.43 16.55-0.3 18.95-0.3L18.95-0.3Q21.2-0.3 23.65-1.2 26.1-2.1 27.5-4.1L27.5-4.1Q28.6-5.55 29.03-7.25 29.45-8.95 29.8-12L29.8-12 30.95-12Q30.95-7.45 31-4.67 31.05-1.9 31.15 0L31.15 0 30 0Q29.8-2.15 29.33-2.7 28.85-3.25 27.75-2.55L27.75-2.55Q25.9-1.25 23.83-0.28 21.75 0.7 18.5 0.7L18.5 0.7Q13.75 0.7 10.18-1.45 6.6-3.6 4.63-7.65 2.65-11.7 2.65-17.4L2.65-17.4Q2.65-23 4.7-27.2 6.75-31.4 10.33-33.75 13.9-36.1 18.55-36.1ZM51.4-26.45L51.4-26.45Q52.75-26.45 53.77-25.9 54.8-25.35 55.37-24.48 55.95-23.6 55.95-22.5L55.95-22.5Q55.95-21.25 55.17-20.3 54.4-19.35 53.1-19.35L53.1-19.35Q52.05-19.35 51.25-20.03 50.45-20.7 50.45-21.95L50.45-21.95Q50.45-22.9 50.97-23.58 51.5-24.25 52.15-24.65L52.15-24.65Q51.8-25.15 51.1-25.15L51.1-25.15Q49-25.15 47.45-23.58 45.9-22 45.02-19.8 44.15-17.6 44.15-15.75L44.15-15.75 44.15-5.15Q44.15-2.7 45.57-1.88 47-1.05 49.45-1.05L49.45-1.05 49.45 0Q48.3-0.05 46.2-0.13 44.1-0.2 41.75-0.2L41.75-0.2Q40.05-0.2 38.37-0.13 36.7-0.05 35.85 0L35.85 0 35.85-1.05Q37.9-1.05 38.77-1.8 39.65-2.55 39.65-4.65L39.65-4.65 39.65-20.3Q39.65-22.55 38.85-23.63 38.05-24.7 35.85-24.7L35.85-24.7 35.85-25.75Q37.45-25.6 38.95-25.6L38.95-25.6Q40.4-25.6 41.72-25.78 43.05-25.95 44.15-26.3L44.15-26.3 44.15-20.05Q44.7-21.5 45.72-22.98 46.75-24.45 48.2-25.45 49.65-26.45 51.4-26.45ZM81.34-25.75L81.34-25.75 81.34-24.75Q80.4-24.65 79.59-23.9 78.8-23.15 78.09-21.25L78.09-21.25 69.9 0.25 69.05 0.25 59.85-21.9Q58.9-23.85 57.97-24.28 57.05-24.7 56.45-24.7L56.45-24.7 56.45-25.75Q57.55-25.6 58.75-25.53 59.95-25.45 61.35-25.45L61.35-25.45Q62.9-25.45 64.62-25.55 66.34-25.65 67.84-25.75L67.84-25.75 67.84-24.7Q66.59-24.7 65.62-24.53 64.65-24.35 64.4-23.48 64.15-22.6 65-20.5L65-20.5 71.15-5.25 70.84-5.15 76.55-20.05Q77.5-22.55 76.75-23.55 76-24.55 73.34-24.75L73.34-24.75 73.34-25.75Q74.65-25.7 75.52-25.65 76.4-25.6 77.55-25.6L77.55-25.6Q78.7-25.6 79.62-25.65 80.55-25.7 81.34-25.75ZM68.95-0.15L69.9 0.25 68.2 4.6Q67.25 7.05 66.05 8.1L66.05 8.1Q65.25 8.85 64.15 9.13 63.05 9.4 62.15 9.4L62.15 9.4Q61.2 9.4 60.42 9.05 59.65 8.7 59.2 8.03 58.75 7.35 58.75 6.4L58.75 6.4Q58.75 5.2 59.45 4.48 60.15 3.75 61.4 3.75L61.4 3.75Q62.45 3.75 63.2 4.35 63.95 4.95 63.95 6.1L63.95 6.1Q63.95 6.95 63.55 7.5 63.15 8.05 62.6 8.35L62.6 8.35Q62.7 8.4 62.77 8.4 62.85 8.4 62.9 8.4L62.9 8.4Q64.25 8.4 65.3 7.48 66.34 6.55 67.15 4.5L67.15 4.5 68.95-0.15ZM91.24-26.3L91.24-26.3 91.24 4.4Q91.24 6.55 92.52 7.28 93.79 8 96.04 8L96.04 8 96.04 9.05Q94.94 9 92.99 8.93 91.04 8.85 88.84 8.85L88.84 8.85Q87.29 8.85 85.77 8.93 84.24 9 83.44 9.05L83.44 9.05 83.44 8Q85.24 8 85.99 7.35 86.74 6.7 86.74 4.9L86.74 4.9 86.74-20.3Q86.74-22.55 85.94-23.63 85.14-24.7 82.94-24.7L82.94-24.7 82.94-25.75Q84.54-25.6 86.04-25.6L86.04-25.6Q87.49-25.6 88.82-25.78 90.14-25.95 91.24-26.3ZM99.24-26.45L99.24-26.45Q103.19-26.45 105.87-23.28 108.54-20.1 108.54-14.05L108.54-14.05Q108.54-10.45 107.37-7.05 106.19-3.65 103.69-1.48 101.19 0.7 97.09 0.7L97.09 0.7Q94.74 0.7 93.02-0.4 91.29-1.5 90.69-3.05L90.69-3.05 91.19-3.75Q91.89-2.35 93.22-1.4 94.54-0.45 96.54-0.45L96.54-0.45Q99.34-0.45 100.89-2.2 102.44-3.95 103.07-6.88 103.69-9.8 103.69-13.35L103.69-13.35Q103.69-17.35 103.04-19.9 102.39-22.45 101.09-23.7 99.79-24.95 97.89-24.95L97.89-24.95Q95.44-24.95 93.44-22.93 91.44-20.9 90.89-16.8L90.89-16.8 90.29-17.5Q90.84-21.75 93.32-24.1 95.79-26.45 99.24-26.45ZM120.39-34.05L120.39-34.05 120.39-25.7 127.79-25.7 127.79-24.7 120.39-24.7 120.39-5.35Q120.39-3 121.24-2.05 122.09-1.1 123.59-1.1L123.59-1.1Q125.09-1.1 126.19-2.33 127.29-3.55 128.09-6.45L128.09-6.45 129.09-6.2Q128.59-3.3 127.12-1.3 125.64 0.7 122.59 0.7L122.59 0.7Q120.89 0.7 119.79 0.28 118.69-0.15 117.84-0.95L117.84-0.95Q116.74-2.1 116.31-3.7 115.89-5.3 115.89-7.95L115.89-7.95 115.89-24.7 111.09-24.7 111.09-25.7 115.89-25.7 115.89-33.35Q117.14-33.4 118.29-33.55 119.44-33.7 120.39-34.05ZM142.29-26.45L142.29-26.45Q145.49-26.45 148.04-25.05 150.59-23.65 152.11-20.65 153.64-17.65 153.64-12.85L153.64-12.85Q153.64-8.05 152.11-5.08 150.59-2.1 148.04-0.7 145.49 0.7 142.29 0.7L142.29 0.7Q139.14 0.7 136.56-0.7 133.99-2.1 132.46-5.08 130.94-8.05 130.94-12.85L130.94-12.85Q130.94-17.65 132.46-20.65 133.99-23.65 136.56-25.05 139.14-26.45 142.29-26.45ZM142.29-25.45L142.29-25.45Q139.44-25.45 137.61-22.5 135.79-19.55 135.79-12.85L135.79-12.85Q135.79-6.15 137.61-3.23 139.44-0.3 142.29-0.3L142.29-0.3Q145.14-0.3 146.96-3.23 148.79-6.15 148.79-12.85L148.79-12.85Q148.79-19.55 146.96-22.5 145.14-25.45 142.29-25.45ZM169.94-26.45L169.94-26.45Q171.54-26.45 173.04-26.05 174.54-25.65 175.74-24.85L175.74-24.85Q176.89-24.1 177.49-23.13 178.09-22.15 178.09-21L178.09-21Q178.09-19.65 177.34-18.93 176.59-18.2 175.44-18.2L175.44-18.2Q174.34-18.2 173.51-18.85 172.69-19.5 172.69-20.7L172.69-20.7Q172.69-21.85 173.31-22.55 173.94-23.25 174.79-23.45L174.79-23.45Q174.29-24.35 173.01-24.95 171.74-25.55 170.29-25.55L170.29-25.55Q169.04-25.55 167.79-24.95 166.54-24.35 165.49-22.98 164.44-21.6 163.79-19.23 163.14-16.85 163.14-13.3L163.14-13.3Q163.14-8.9 164.14-6.3 165.14-3.7 166.76-2.58 168.39-1.45 170.34-1.45L170.34-1.45Q172.29-1.45 174.29-2.6 176.29-3.75 177.59-6.6L177.59-6.6 178.54-6.25Q178.04-4.65 176.89-3.03 175.74-1.4 173.89-0.35 172.04 0.7 169.34 0.7L169.34 0.7Q166.24 0.7 163.74-0.9 161.24-2.5 159.76-5.48 158.29-8.45 158.29-12.55L158.29-12.55Q158.29-16.65 159.76-19.78 161.24-22.9 163.89-24.68 166.54-26.45 169.94-26.45ZM204.43-26.3L204.43-26.3 204.43-5.4Q204.43-3.15 205.26-2.08 206.08-1 208.23-1L208.23-1 208.23 0.05Q206.68-0.1 205.13-0.1L205.13-0.1Q203.68-0.1 202.36 0.05 201.03 0.2 199.93 0.6L199.93 0.6 199.93-5.3Q198.68-2.05 196.41-0.68 194.13 0.7 191.73 0.7L191.73 0.7Q189.98 0.7 188.68 0.2 187.38-0.3 186.53-1.2L186.53-1.2Q185.58-2.2 185.23-3.8 184.88-5.4 184.88-7.75L184.88-7.75 184.88-20.3Q184.88-22.55 184.08-23.63 183.28-24.7 181.08-24.7L181.08-24.7 181.08-25.75Q182.68-25.6 184.18-25.6L184.18-25.6Q185.63-25.6 186.96-25.78 188.28-25.95 189.38-26.3L189.38-26.3 189.38-6.65Q189.38-5.1 189.58-3.8 189.78-2.5 190.58-1.7 191.38-0.9 193.18-0.9L193.18-0.9Q196.13-0.9 198.03-3.53 199.93-6.15 199.93-9.95L199.93-9.95 199.93-20.3Q199.93-22.55 199.13-23.63 198.33-24.7 196.13-24.7L196.13-24.7 196.13-25.75Q197.73-25.6 199.23-25.6L199.23-25.6Q200.68-25.6 202.01-25.78 203.33-25.95 204.43-26.3ZM226.33-26.45L226.33-26.45Q227.68-26.45 228.71-25.9 229.73-25.35 230.31-24.48 230.88-23.6 230.88-22.5L230.88-22.5Q230.88-21.25 230.11-20.3 229.33-19.35 228.03-19.35L228.03-19.35Q226.98-19.35 226.18-20.03 225.38-20.7 225.38-21.95L225.38-21.95Q225.38-22.9 225.91-23.58 226.43-24.25 227.08-24.65L227.08-24.65Q226.73-25.15 226.03-25.15L226.03-25.15Q223.93-25.15 222.38-23.58 220.83-22 219.96-19.8 219.08-17.6 219.08-15.75L219.08-15.75 219.08-5.15Q219.08-2.7 220.51-1.88 221.93-1.05 224.38-1.05L224.38-1.05 224.38 0Q223.23-0.05 221.13-0.13 219.03-0.2 216.68-0.2L216.68-0.2Q214.98-0.2 213.31-0.13 211.63-0.05 210.78 0L210.78 0 210.78-1.05Q212.83-1.05 213.71-1.8 214.58-2.55 214.58-4.65L214.58-4.65 214.58-20.3Q214.58-22.55 213.78-23.63 212.98-24.7 210.78-24.7L210.78-24.7 210.78-25.75Q212.38-25.6 213.88-25.6L213.88-25.6Q215.33-25.6 216.66-25.78 217.98-25.95 219.08-26.3L219.08-26.3 219.08-20.05Q219.63-21.5 220.66-22.98 221.68-24.45 223.13-25.45 224.58-26.45 226.33-26.45ZM248.58-26.45L248.58-26.45Q249.93-26.45 250.95-25.9 251.98-25.35 252.55-24.48 253.13-23.6 253.13-22.5L253.13-22.5Q253.13-21.25 252.35-20.3 251.58-19.35 250.28-19.35L250.28-19.35Q249.23-19.35 248.43-20.03 247.63-20.7 247.63-21.95L247.63-21.95Q247.63-22.9 248.15-23.58 248.68-24.25 249.33-24.65L249.33-24.65Q248.98-25.15 248.28-25.15L248.28-25.15Q246.18-25.15 244.63-23.58 243.08-22 242.2-19.8 241.33-17.6 241.33-15.75L241.33-15.75 241.33-5.15Q241.33-2.7 242.75-1.88 244.18-1.05 246.63-1.05L246.63-1.05 246.63 0Q245.48-0.05 243.38-0.13 241.28-0.2 238.93-0.2L238.93-0.2Q237.23-0.2 235.55-0.13 233.88-0.05 233.03 0L233.03 0 233.03-1.05Q235.08-1.05 235.95-1.8 236.83-2.55 236.83-4.65L236.83-4.65 236.83-20.3Q236.83-22.55 236.03-23.63 235.23-24.7 233.03-24.7L233.03-24.7 233.03-25.75Q234.63-25.6 236.13-25.6L236.13-25.6Q237.58-25.6 238.9-25.78 240.23-25.95 241.33-26.3L241.33-26.3 241.33-20.05Q241.88-21.5 242.9-22.98 243.93-24.45 245.38-25.45 246.83-26.45 248.58-26.45ZM266.43-26.45L266.43-26.45Q270.83-26.45 273.3-23.78 275.78-21.1 275.78-15.45L275.78-15.45 258.13-15.45 258.08-16.4 270.98-16.4Q271.08-18.85 270.58-20.93 270.08-23 269-24.25 267.93-25.5 266.23-25.5L266.23-25.5Q263.93-25.5 262.15-23.2 260.38-20.9 260.03-15.9L260.03-15.9 260.18-15.7Q260.08-14.95 260.03-14.05 259.98-13.15 259.98-12.25L259.98-12.25Q259.98-8.85 261.08-6.4 262.18-3.95 263.95-2.68 265.73-1.4 267.63-1.4L267.63-1.4Q269.88-1.4 271.78-2.5 273.68-3.6 274.98-6.4L274.98-6.4 275.98-6Q275.43-4.35 274.18-2.8 272.93-1.25 271.03-0.28 269.13 0.7 266.63 0.7L266.63 0.7Q263.03 0.7 260.45-0.95 257.88-2.6 256.5-5.53 255.13-8.45 255.13-12.25L255.13-12.25Q255.13-16.65 256.53-19.83 257.93-23 260.48-24.73 263.03-26.45 266.43-26.45ZM296.37-26.45L296.37-26.45Q298.27-26.45 299.55-25.95 300.82-25.45 301.67-24.55L301.67-24.55Q302.62-23.55 303.02-22.05 303.42-20.55 303.42-18L303.42-18 303.42-4.65Q303.42-2.55 304.3-1.8 305.17-1.05 307.22-1.05L307.22-1.05 307.22 0Q306.37-0.05 304.62-0.13 302.87-0.2 301.22-0.2L301.22-0.2Q299.57-0.2 298-0.13 296.42-0.05 295.62 0L295.62 0 295.62-1.05Q297.42-1.05 298.17-1.8 298.92-2.55 298.92-4.65L298.92-4.65 298.92-19.1Q298.92-20.65 298.67-21.95 298.42-23.25 297.55-24.05 296.67-24.85 294.87-24.85L294.87-24.85Q291.72-24.85 289.8-22.23 287.87-19.6 287.87-15.75L287.87-15.75 287.87-4.65Q287.87-2.55 288.62-1.8 289.37-1.05 291.17-1.05L291.17-1.05 291.17 0Q290.37-0.05 288.8-0.13 287.22-0.2 285.57-0.2L285.57-0.2Q283.92-0.2 282.17-0.13 280.42-0.05 279.57 0L279.57 0 279.57-1.05Q281.62-1.05 282.5-1.8 283.37-2.55 283.37-4.65L283.37-4.65 283.37-20.3Q283.37-22.55 282.57-23.63 281.77-24.7 279.57-24.7L279.57-24.7 279.57-25.75Q281.17-25.6 282.67-25.6L282.67-25.6Q284.12-25.6 285.45-25.78 286.77-25.95 287.87-26.3L287.87-26.3 287.87-20.4Q289.17-23.8 291.5-25.13 293.82-26.45 296.37-26.45ZM321.92-26.45L321.92-26.45Q323.52-26.45 325.02-26.05 326.52-25.65 327.72-24.85L327.72-24.85Q328.87-24.1 329.47-23.13 330.07-22.15 330.07-21L330.07-21Q330.07-19.65 329.32-18.93 328.57-18.2 327.42-18.2L327.42-18.2Q326.32-18.2 325.5-18.85 324.67-19.5 324.67-20.7L324.67-20.7Q324.67-21.85 325.3-22.55 325.92-23.25 326.77-23.45L326.77-23.45Q326.27-24.35 325-24.95 323.72-25.55 322.27-25.55L322.27-25.55Q321.02-25.55 319.77-24.95 318.52-24.35 317.47-22.98 316.42-21.6 315.77-19.23 315.12-16.85 315.12-13.3L315.12-13.3Q315.12-8.9 316.12-6.3 317.12-3.7 318.75-2.58 320.37-1.45 322.32-1.45L322.32-1.45Q324.27-1.45 326.27-2.6 328.27-3.75 329.57-6.6L329.57-6.6 330.52-6.25Q330.02-4.65 328.87-3.03 327.72-1.4 325.87-0.35 324.02 0.7 321.32 0.7L321.32 0.7Q318.22 0.7 315.72-0.9 313.22-2.5 311.75-5.48 310.27-8.45 310.27-12.55L310.27-12.55Q310.27-16.65 311.75-19.78 313.22-22.9 315.87-24.68 318.52-26.45 321.92-26.45ZM356.97-25.75L356.97-25.75 356.97-24.75Q356.02-24.65 355.22-23.9 354.42-23.15 353.72-21.25L353.72-21.25 345.52 0.25 344.67 0.25 335.47-21.9Q334.52-23.85 333.59-24.28 332.67-24.7 332.07-24.7L332.07-24.7 332.07-25.75Q333.17-25.6 334.37-25.53 335.57-25.45 336.97-25.45L336.97-25.45Q338.52-25.45 340.24-25.55 341.97-25.65 343.47-25.75L343.47-25.75 343.47-24.7Q342.22-24.7 341.24-24.53 340.27-24.35 340.02-23.48 339.77-22.6 340.62-20.5L340.62-20.5 346.77-5.25 346.47-5.15 352.17-20.05Q353.12-22.55 352.37-23.55 351.62-24.55 348.97-24.75L348.97-24.75 348.97-25.75Q350.27-25.7 351.14-25.65 352.02-25.6 353.17-25.6L353.17-25.6Q354.32-25.6 355.24-25.65 356.17-25.7 356.97-25.75ZM344.57-0.15L345.52 0.25 343.82 4.6Q342.87 7.05 341.67 8.1L341.67 8.1Q340.87 8.85 339.77 9.13 338.67 9.4 337.77 9.4L337.77 9.4Q336.82 9.4 336.04 9.05 335.27 8.7 334.82 8.03 334.37 7.35 334.37 6.4L334.37 6.4Q334.37 5.2 335.07 4.48 335.77 3.75 337.02 3.75L337.02 3.75Q338.07 3.75 338.82 4.35 339.57 4.95 339.57 6.1L339.57 6.1Q339.57 6.95 339.17 7.5 338.77 8.05 338.22 8.35L338.22 8.35Q338.32 8.4 338.39 8.4 338.47 8.4 338.52 8.4L338.52 8.4Q339.87 8.4 340.92 7.48 341.97 6.55 342.77 4.5L342.77 4.5 344.57-0.15Z" opacity="1" transform="matrix(1,0,0,1,0,0)" fill="#d9bca9" class="undefined-text-1" data-fill-palette-color="secondary" id="text-1"></path></svg></g></svg></g></svg></g></svg></g><g></g></svg></g><defs></defs></svg><rect width="395.52" height="62.276311137687976" fill="none" stroke="none" visibility="hidden"></rect></g></svg></g></svg>